<?xml version="1.0" encoding="utf-8"?>
<!-- Svg Vector Icons : http://www.onlinewebfonts.com/icon -->
<!DOCTYPE svg PUBLIC "-//W3C//DTD SVG 1.1//EN" "http://www.w3.org/Graphics/SVG/1.1/DTD/svg11.dtd">
<svg version="1.1" xmlns="http://www.w3.org/2000/svg" xmlns:xlink="http://www.w3.org/1999/xlink" x="0px" y="0px" viewBox="0 0 256 256" enable-background="new 0 0 256 256" xml:space="preserve">
<metadata> Svg Vector Icons : http://www.onlinewebfonts.com/icon </metadata>
<g><g><g><path fill="#000000" d="M124.2,26c-5.5,1.4-6.1,1.9-35.7,31.2C73,72.6,49.5,96,36.3,109.3C9,136.6,10,135.4,10,142.2c0,5.3,1,7.2,6.8,13.1c6,6.1,8.5,7.5,14,7.5c6.1,0,7.9-1.1,18.3-11.4l8.7-8.6v43.7v43.7h23.3h23.3v-34.9v-34.9h23.3h23.3v34.9v34.9h23.3h23.3v-44v-44l9.1,9c10.6,10.5,11.6,11.2,17.7,11.4c5.9,0.3,8.1-0.8,14.4-7.3c6-6,6.9-7.9,7-13.2c0-3.3-0.1-4.1-1.5-6.8c-1.4-2.9-5.3-6.9-53.1-54.4c-50.6-50.4-51.6-51.4-55.3-53.2c-3-1.5-4.3-1.9-6.9-2C127.4,25.7,125.1,25.8,124.2,26z"/></g></g></g>
</svg>